<svg
  width="0"
  height="0"
  class="hidden">
  <symbol
    fill="none"
    xmlns="http://www.w3.org/2000/svg"
    viewBox="0 0 20 20"
    id="apple">
    <path
      d="M12.1592 2.97411C12.2232 2.95472 12.2826 2.92269 12.334 2.87992C12.3854 2.83716 12.4277 2.78452 12.4584 2.72512C12.4891 2.66572 12.5075 2.60078 12.5127 2.53412C12.5178 2.46746 12.5096 2.40045 12.4884 2.33704C12.4672 2.27364 12.4335 2.21513 12.3893 2.16497C12.3451 2.11482 12.2912 2.07404 12.231 2.04505C12.1707 2.01607 12.1053 1.99945 12.0385 1.9962C11.9717 1.99294 11.905 2.00312 11.8422 2.02611C10.9042 2.33811 10.3202 3.10811 9.97621 3.93311C9.93002 4.04463 9.88766 4.15769 9.84921 4.27211C9.66188 3.91725 9.4222 3.59261 9.13821 3.30911C8.75385 2.92392 8.29475 2.62142 7.78915 2.42021C7.28356 2.219 6.74215 2.12334 6.19821 2.13911C5.61821 2.15511 5.15521 2.61911 5.13921 3.19811C5.12345 3.74204 5.21911 4.28345 5.42031 4.78905C5.62152 5.29465 5.92402 5.75374 6.30921 6.13811L6.34021 6.16811C5.50021 6.35007 4.7411 6.79762 4.17523 7.44454C3.60936 8.09146 3.26678 8.90337 3.19821 9.76011L3.19221 9.83411C3.06019 11.4813 3.41118 13.1313 4.20221 14.5821L4.56221 15.2401C4.57221 15.2571 4.58221 15.2741 4.59421 15.2901L5.59421 16.6921C5.82086 17.0095 6.11393 17.2737 6.45305 17.4664C6.79217 17.659 7.16918 17.7755 7.55787 17.8077C7.94656 17.8398 8.3376 17.787 8.70377 17.6527C9.06995 17.5184 9.40247 17.3059 9.67821 17.0301C9.72056 16.9877 9.77083 16.9541 9.82617 16.9312C9.88151 16.9083 9.94082 16.8965 10.0007 16.8965C10.0606 16.8965 10.1199 16.9083 10.1753 16.9312C10.2306 16.9541 10.2809 16.9877 10.3232 17.0301C10.599 17.3059 10.9315 17.5184 11.2977 17.6527C11.6638 17.787 12.0549 17.8398 12.4436 17.8077C12.8322 17.7755 13.2093 17.659 13.5484 17.4664C13.8875 17.2737 14.1806 17.0095 14.4072 16.6921L15.4072 15.2911C15.4189 15.2748 15.4296 15.2577 15.4392 15.2401L15.7982 14.5821C16.5893 13.1313 16.9402 11.4813 16.8082 9.83411L16.8032 9.76011C16.759 9.20789 16.6005 8.67089 16.3378 8.18313C16.0752 7.69537 15.714 7.26749 15.2773 6.9266C14.8407 6.58571 14.3379 6.33925 13.801 6.20283C13.2641 6.06641 12.7047 6.04301 12.1582 6.13411L10.5012 6.41011C10.5112 5.72911 10.6312 4.96311 10.9002 4.31711C11.1802 3.64211 11.5962 3.16211 12.1582 2.97411H12.1592ZM6.90921 8.97411C6.75569 9.02265 6.61329 9.1011 6.49024 9.20494C6.36718 9.30877 6.26589 9.43594 6.19221 9.57911C6.00721 9.92711 5.88021 10.5011 5.99721 11.4381C6.01034 11.568 5.97213 11.6979 5.89076 11.8C5.80939 11.9021 5.69131 11.9683 5.56176 11.9845C5.43221 12.0007 5.30147 11.9656 5.19747 11.8867C5.09347 11.8077 5.02447 11.6912 5.00521 11.5621C4.87221 10.4981 4.99521 9.69711 5.31021 9.10811C5.63021 8.50811 6.11721 8.18411 6.59321 8.02511C6.65553 8.00436 6.72131 7.99609 6.78682 8.00077C6.85233 8.00544 6.91628 8.02297 6.97501 8.05236C7.03375 8.08175 7.08611 8.12243 7.12913 8.17205C7.17215 8.22168 7.20496 8.2793 7.22571 8.34161C7.24646 8.40392 7.25473 8.46971 7.25006 8.53522C7.24538 8.60073 7.22785 8.66468 7.19846 8.72341C7.16907 8.78214 7.1284 8.83451 7.07877 8.87753C7.02914 8.92054 6.97153 8.95336 6.90921 8.97411Z"></path>
  </symbol>
  <symbol
    fill="none"
    xmlns="http://www.w3.org/2000/svg"
    viewBox="0 0 20 20"
    id="arrow">
    <path
      d="M11.3333 14.1667L15.5 9.99999M15.5 9.99999L11.3333 5.83333M15.5 9.99999H5.5"
      stroke-width="1.5"
      stroke-linecap="round"
      stroke-linejoin="round"></path>
  </symbol>
  <symbol
    fill="none"
    xmlns="http://www.w3.org/2000/svg"
    viewBox="0 0 20 20"
    id="bubble">
    <path
      d="M12.9957 10.2163C15.3567 10.2163 17.2707 8.30228 17.2707 5.94126C17.2707 3.58025 15.3567 1.66626 12.9957 1.66626C10.6347 1.66626 8.7207 3.58025 8.7207 5.94126C8.7207 8.30228 10.6347 10.2163 12.9957 10.2163Z"></path>
    <path
      d="M5.29712 16.1995C6.71465 16.1995 7.8638 15.0504 7.8638 13.6328C7.8638 12.2153 6.71465 11.0662 5.29712 11.0662C3.87959 11.0662 2.73047 12.2153 2.73047 13.6328C2.73047 15.0504 3.87959 16.1995 5.29712 16.1995Z"></path>
    <path
      d="M13.8443 18.3328C15.0225 18.3328 15.9776 17.3777 15.9776 16.1995C15.9776 15.0213 15.0225 14.0662 13.8443 14.0662C12.6661 14.0662 11.7109 15.0213 11.7109 16.1995C11.7109 17.3777 12.6661 18.3328 13.8443 18.3328Z"></path>
  </symbol>
  <symbol
    fill="none"
    xmlns="http://www.w3.org/2000/svg"
    viewBox="0 0 18 18"
    id="calendar">
    <path
      d="M14.25 3H3.75C2.92157 3 2.25 3.67157 2.25 4.5V15C2.25 15.8284 2.92157 16.5 3.75 16.5H14.25C15.0784 16.5 15.75 15.8284 15.75 15V4.5C15.75 3.67157 15.0784 3 14.25 3Z"
      stroke-width="1.5"
      stroke-linecap="round"
      stroke-linejoin="round"></path>
    <path
      d="M12 1.5V4.5"
      stroke-width="1.5"
      stroke-linecap="round"
      stroke-linejoin="round"></path>
    <path
      d="M6 1.5V4.5"
      stroke-width="1.5"
      stroke-linecap="round"
      stroke-linejoin="round"></path>
    <path
      d="M2.25 7.5H15.75"
      stroke-width="1.5"
      stroke-linecap="round"
      stroke-linejoin="round"></path>
  </symbol>
  <symbol
    fill="none"
    xmlns="http://www.w3.org/2000/svg"
    viewBox="0 0 6 10"
    id="chevron">
    <path
      d="M0.75 0.75L4.75 4.75L0.75 8.75"
      stroke-width="1.5"
      stroke-linecap="round"
      stroke-linejoin="round"></path>
  </symbol>
  <symbol
    fill="none"
    xmlns="http://www.w3.org/2000/svg"
    viewBox="0 0 24 24"
    id="exclamation-mark">
    <path
      d="M12 19V19.01M12 15V5"
      stroke-width="2"
      stroke-linecap="round"
      stroke-linejoin="round"></path>
  </symbol>
  <symbol
    fill="none"
    xmlns="http://www.w3.org/2000/svg"
    viewBox="0 0 20 20"
    id="eye-off">
    <g clip-path="url(#clip0_150_20524)">
      <path
        d="M14.95 14.95C13.5255 16.0358 11.7909 16.6374 10 16.6667C4.16668 16.6667 0.833344 10 0.833344 10C1.86992 8.06825 3.30762 6.38051 5.05001 5.05M8.25001 3.53333C8.82362 3.39907 9.4109 3.33195 10 3.33333C15.8333 3.33333 19.1667 10 19.1667 10C18.6608 10.9463 18.0576 11.8373 17.3667 12.6583M11.7667 11.7667C11.5378 12.0123 11.2618 12.2093 10.9551 12.3459C10.6485 12.4826 10.3174 12.556 9.98175 12.562C9.64608 12.5679 9.31265 12.5061 9.00135 12.3804C8.69006 12.2547 8.40728 12.0675 8.16988 11.8301C7.93249 11.5927 7.74534 11.31 7.6196 10.9987C7.49387 10.6874 7.43212 10.3539 7.43804 10.0183C7.44396 9.68258 7.51743 9.35154 7.65407 9.04487C7.79071 8.73821 7.98772 8.46221 8.23334 8.23333"
        stroke-width="1.8"
        stroke-linecap="round"
        stroke-linejoin="round"></path>
      <path
        d="M0.833344 0.833313L19.1667 19.1666"
        stroke-width="1.8"
        stroke-linecap="round"
        stroke-linejoin="round"></path>
    </g>
    <defs>
      <clipPath id="clip0_150_20524">
        <rect
          width="20"
          height="20"
          fill="white"></rect>
      </clipPath>
    </defs>
  </symbol>
  <symbol
    fill="none"
    xmlns="http://www.w3.org/2000/svg"
    viewBox="0 0 20 20"
    id="eye">
    <g clip-path="url(#clip0_149_20509)">
      <path
        d="M0.833344 9.99998C0.833344 9.99998 4.16668 3.33331 10 3.33331C15.8333 3.33331 19.1667 9.99998 19.1667 9.99998C19.1667 9.99998 15.8333 16.6666 10 16.6666C4.16668 16.6666 0.833344 9.99998 0.833344 9.99998Z"
        stroke-width="1.8"
        stroke-linecap="round"
        stroke-linejoin="round"></path>
      <path
        d="M10 12.5C11.3807 12.5 12.5 11.3807 12.5 10C12.5 8.61929 11.3807 7.5 10 7.5C8.61929 7.5 7.5 8.61929 7.5 10C7.5 11.3807 8.61929 12.5 10 12.5Z"
        stroke-width="1.8"
        stroke-linecap="round"
        stroke-linejoin="round"></path>
    </g>
    <defs>
      <clipPath id="clip0_149_20509">
        <rect
          width="20"
          height="20"
          fill="white"></rect>
      </clipPath>
    </defs>
  </symbol>
  <symbol
    fill="none"
    xmlns="http://www.w3.org/2000/svg"
    viewBox="0 0 20 20"
    id="fire">
    <path
      d="M10.0009 13.9321C9.40984 14.382 8.18945 15.4946 8.18945 17.0105C8.18945 18.0112 9.00164 18.8254 10 18.8254C10.9984 18.8254 11.8105 18.0112 11.8105 17.0105C11.8105 15.5749 10.5895 14.41 10.0009 13.9321Z"></path>
    <path
      d="M14.2437 3.48096C14.0241 3.23264 13.6452 3.2176 13.4061 3.4408L10.6488 6.0142V0.624943C10.6488 0.173811 10.1049 -0.163259 9.69754 0.0831466C9.62043 0.129787 7.78809 1.24869 5.93664 3.28061C3.68551 5.75123 2.15234 8.75939 2.15234 12.133C2.15234 16.4709 5.67293 20 10.0003 20C8.35574 20 7.01785 18.6588 7.01785 17.0103C7.01785 14.3466 9.6041 12.7693 9.71418 12.7034C9.90715 12.5881 10.1488 12.5935 10.3364 12.7171C10.4445 12.7883 12.9827 14.4908 12.9827 17.0103C12.9827 18.6588 11.6448 20 10.0003 20C14.3276 20 17.8482 16.4709 17.8482 12.133C17.8482 8.85744 16.4028 5.92154 14.2437 3.48096Z"></path>
  </symbol>
  <symbol
    fill="none"
    xmlns="http://www.w3.org/2000/svg"
    viewBox="0 0 20 20"
    id="food">
    <path
      d="M15.0003 2.5C15.2044 2.50003 15.4014 2.57496 15.554 2.7106C15.7065 2.84623 15.8039 3.03312 15.8278 3.23583L15.8337 3.33333V16.6667C15.8334 16.8791 15.7521 17.0834 15.6063 17.2378C15.4605 17.3923 15.2612 17.4852 15.0492 17.4976C14.8371 17.5101 14.6283 17.4411 14.4655 17.3048C14.3026 17.1685 14.1979 16.9751 14.1728 16.7642L14.167 16.6667V12.5H13.3337C13.1295 12.5 12.9325 12.425 12.78 12.2894C12.6275 12.1538 12.53 11.9669 12.5062 11.7642L12.5003 11.6667V6.66667C12.5003 4.825 13.7503 2.5 15.0003 2.5ZM10.0003 2.5C10.2044 2.50003 10.4014 2.57496 10.554 2.7106C10.7065 2.84623 10.8039 3.03312 10.8278 3.23583L10.8337 3.33333V7.5C10.8336 8.23906 10.588 8.95715 10.1355 9.54148C9.68296 10.1258 9.04918 10.5433 8.33366 10.7283V16.6667C8.33342 16.8791 8.25209 17.0834 8.10629 17.2378C7.96048 17.3923 7.7612 17.4852 7.54916 17.4976C7.33713 17.5101 7.12834 17.4411 6.96547 17.3048C6.80259 17.1685 6.69791 16.9751 6.67283 16.7642L6.66699 16.6667V10.7283C5.97987 10.5507 5.36733 10.1585 4.91846 9.60876C4.46959 9.05903 4.2078 8.38043 4.17116 7.67167L4.16699 7.5V3.33333C4.16723 3.12093 4.24856 2.91664 4.39437 2.76219C4.54017 2.60775 4.73945 2.5148 4.95149 2.50236C5.16352 2.48991 5.37231 2.5589 5.53519 2.69522C5.69806 2.83155 5.80274 3.02492 5.82783 3.23583L5.83366 3.33333V7.5C5.83367 7.79255 5.91068 8.07995 6.05696 8.33331C6.20324 8.58667 6.41363 8.79706 6.66699 8.94333V3.33333C6.66723 3.12093 6.74856 2.91664 6.89437 2.76219C7.04017 2.60775 7.23945 2.5148 7.45149 2.50236C7.66352 2.48991 7.87231 2.5589 8.03519 2.69522C8.19806 2.83155 8.30274 3.02492 8.32783 3.23583L8.33366 3.33333L8.33449 8.94333C8.56704 8.80891 8.76366 8.62027 8.9076 8.39349C9.05153 8.1667 9.13852 7.90848 9.16116 7.64083L9.16699 7.5V3.33333C9.16699 3.11232 9.25479 2.90036 9.41107 2.74408C9.56735 2.5878 9.77931 2.5 10.0003 2.5Z"></path>
  </symbol>
  <symbol
    fill="none"
    xmlns="http://www.w3.org/2000/svg"
    viewBox="0 0 187 69"
    id="line">
    <path
      d="M131.641 1C87.6179 1.64681 -8.5146 9.43742 1.76345 49.0933C11.0005 77.0911 142.624 71.0766 175.099 50.0089C207.575 28.9412 162.974 7.01934 100.806 14.7811"
      stroke-width="2"
      stroke-linecap="round"
      stroke-linejoin="round"></path>
  </symbol>
  <symbol
    xmlns="http://www.w3.org/2000/svg"
    viewBox="0 0 44 17"
    id="logo">
    <path
      d="M43 7.28571C43.5523 7.28571 44 7.73343 44 8.28571V8.71429C44 9.26657 43.5523 9.71429 43 9.71429H41.8571C41.3049 9.71429 40.8571 10.162 40.8571 10.7143V13.5714C40.8571 14.1237 40.4094 14.5714 39.8571 14.5714H38.7143C38.162 14.5714 37.7143 15.0191 37.7143 15.5714V16C37.7143 16.5523 37.2666 17 36.7143 17H34C33.4477 17 33 16.5523 33 16V10.7143C33 10.162 32.5523 9.71429 32 9.71429H12C11.4477 9.71429 11 10.162 11 10.7143V16C11 16.5523 10.5523 17 10 17H7.28572C6.73343 17 6.28571 16.5523 6.28571 16V15.5714C6.28571 15.0191 5.838 14.5714 5.28571 14.5714H4.14286C3.59057 14.5714 3.14286 14.1237 3.14286 13.5714V10.7143C3.14286 10.162 2.69514 9.71429 2.14286 9.71429H0.999999C0.447714 9.71429 0 9.26657 0 8.71429V8.28571C0 7.73343 0.447715 7.28571 1 7.28571H2.14286C2.69514 7.28571 3.14286 6.838 3.14286 6.28571V3.42857C3.14286 2.87629 3.59057 2.42857 4.14286 2.42857H5.28572C5.838 2.42857 6.28571 1.98086 6.28571 1.42857V0.999999C6.28571 0.447714 6.73343 0 7.28571 0H10C10.5523 0 11 0.447715 11 1V6.28572C11 6.838 11.4477 7.28571 12 7.28571H32C32.5523 7.28571 33 6.838 33 6.28571V0.999999C33 0.447714 33.4477 0 34 0H36.7143C37.2666 0 37.7143 0.447715 37.7143 1V1.42857C37.7143 1.98086 38.162 2.42857 38.7143 2.42857H39.8571C40.4094 2.42857 40.8571 2.87629 40.8571 3.42857V6.28572C40.8571 6.838 41.3049 7.28571 41.8571 7.28571H43Z"></path>
  </symbol>
  <symbol
    fill="none"
    xmlns="http://www.w3.org/2000/svg"
    viewBox="0 0 20 20"
    id="logout">
    <path
      d="M7.5 2.5H6.5C5.09987 2.5 4.3998 2.5 3.86502 2.77248C3.39462 3.01217 3.01217 3.39462 2.77248 3.86502C2.5 4.3998 2.5 5.09987 2.5 6.5V13.5C2.5 14.9001 2.5 15.6002 2.77248 16.135C3.01217 16.6054 3.39462 16.9878 3.86502 17.2275C4.3998 17.5 5.09987 17.5 6.5 17.5H7.5"
      stroke-width="1.5"
      stroke-linecap="round"
      stroke-linejoin="round"></path>
    <path
      d="M13.3333 14.1667L17.5 10M17.5 10L13.3333 5.83337M17.5 10H7.5"
      stroke-width="1.5"
      stroke-linecap="round"
      stroke-linejoin="round"></path>
  </symbol>
  <symbol
    fill="none"
    xmlns="http://www.w3.org/2000/svg"
    viewBox="0 0 8 10"
    id="pause">
    <path
      d="M0.650391 8.65002V0.650024M7.31706 8.65002V0.650024"
      stroke-width="1.3"
      stroke-linecap="round"
      stroke-linejoin="round"></path>
  </symbol>
  <symbol
    fill="none"
    xmlns="http://www.w3.org/2000/svg"
    viewBox="0 0 15 18"
    id="polygon">
    <path d="M15 8.66028L0 17.3205L0 2.38419e-05L15 8.66028Z"></path>
  </symbol>
  <symbol
    fill="none"
    xmlns="http://www.w3.org/2000/svg"
    viewBox="0 0 16 16"
    id="running-stick">
    <g clip-path="url(#clip0_8_39)">
      <path
        d="M14.8234 4.72544C14.6138 4.47504 14.2403 4.44212 13.9899 4.65092L12.349 6.02938L11.5943 4.15967C11.5675 4.08949 11.5267 4.03057 11.4799 3.97859C11.3257 3.63549 11.058 3.34091 10.6889 3.17023C10.5286 3.09745 10.3631 3.05846 10.1977 3.0394C10.1613 3.02034 10.1283 2.99521 10.0868 2.98222L7.19901 2.17732C7.03699 2.13314 6.87411 2.16173 6.74068 2.2397C6.58213 2.29342 6.4461 2.40865 6.38112 2.57587L5.29378 5.37178C5.17594 5.67589 5.3267 6.01899 5.63168 6.13855C5.93492 6.25638 6.27888 6.10476 6.39758 5.79978L7.31598 3.43882L8.63119 3.80444C8.59913 3.85643 8.56447 3.90495 8.53848 3.9604L6.85245 7.61491C6.82819 7.66863 6.81519 7.72322 6.79786 7.77867L4.7488 11.214L1.31955 12.3611C0.931399 12.6514 0.84909 13.1981 1.13587 13.5862C1.42439 13.9752 1.97282 14.0575 2.36011 13.7708L5.86907 12.5621C5.97651 12.4841 6.05448 12.3819 6.1134 12.2719C6.15759 12.2251 6.20784 12.1878 6.24163 12.1298L7.46327 10.0816L9.63189 11.9296L7.31165 14.5445C6.99194 14.9049 7.024 15.4603 7.38616 15.7791C7.74745 16.1005 8.30108 16.0667 8.62252 15.7046L11.5181 12.4426C11.6082 12.342 11.6619 12.2259 11.6983 12.1047C11.7199 12.0388 11.7199 11.9704 11.7251 11.9019C11.7251 11.8673 11.7381 11.8361 11.7355 11.804C11.7277 11.5649 11.6307 11.3327 11.4349 11.1672L9.43955 9.46557C9.58337 9.32867 9.70554 9.16579 9.79391 8.97431L11.0866 6.17494L11.5007 7.27788C11.5181 7.37578 11.551 7.47196 11.6203 7.55253C11.6827 7.62704 11.7624 7.67643 11.8473 7.71109C11.856 7.71542 11.8664 7.71628 11.8768 7.71888C11.9305 7.73794 11.9851 7.75614 12.0414 7.75874C12.1081 7.7648 12.1757 7.75614 12.2441 7.73708C12.2459 7.73621 12.2467 7.73621 12.2467 7.73621C12.2649 7.73188 12.2831 7.73534 12.3013 7.72755C12.3975 7.69116 12.4711 7.62964 12.5344 7.55773L14.8893 5.55892C15.1397 5.34838 15.034 4.97583 14.8234 4.72544Z"></path>
      <path
        d="M11.8446 3.30102C12.7562 3.30102 13.4951 2.56206 13.4951 1.65051C13.4951 0.738959 12.7562 0 11.8446 0C10.9331 0 10.1941 0.738959 10.1941 1.65051C10.1941 2.56206 10.9331 3.30102 11.8446 3.30102Z"></path>
    </g>
    <defs>
      <clipPath id="clip0_8_39">
        <rect
          width="16"
          height="16"
          fill="white"></rect>
      </clipPath>
    </defs>
  </symbol>
  <symbol
    fill="none"
    xmlns="http://www.w3.org/2000/svg"
    viewBox="0 0 28 28"
    id="settings">
    <path
      d="M14 17.5C15.933 17.5 17.5 15.933 17.5 14C17.5 12.067 15.933 10.5 14 10.5C12.067 10.5 10.5 12.067 10.5 14C10.5 15.933 12.067 17.5 14 17.5Z"
      stroke-opacity="0.3"
      stroke-width="2"
      stroke-linecap="round"
      stroke-linejoin="round"></path>
    <path
      d="M21.8491 17.1819C21.708 17.5018 21.6658 17.8566 21.7282 18.2007C21.7906 18.5447 21.9546 18.8622 22.1991 19.1122L22.2628 19.1758C22.46 19.3728 22.6165 19.6067 22.7232 19.8643C22.83 20.1218 22.8849 20.3978 22.8849 20.6766C22.8849 20.9553 22.83 21.2313 22.7232 21.4889C22.6165 21.7464 22.46 21.9803 22.2628 22.1773C22.0658 22.3745 21.8318 22.531 21.5743 22.6377C21.3168 22.7445 21.0408 22.7994 20.762 22.7994C20.4833 22.7994 20.2072 22.7445 19.9497 22.6377C19.6922 22.531 19.4583 22.3745 19.2613 22.1773L19.1976 22.1137C18.9477 21.8692 18.6302 21.7051 18.2861 21.6428C17.9421 21.5804 17.5872 21.6225 17.2673 21.7637C16.9536 21.8981 16.6861 22.1214 16.4976 22.4059C16.3092 22.6905 16.2081 23.0239 16.2067 23.3652V23.5455C16.2067 24.1081 15.9832 24.6476 15.5854 25.0454C15.1876 25.4432 14.6481 25.6667 14.0855 25.6667C13.5229 25.6667 12.9834 25.4432 12.5856 25.0454C12.1878 24.6476 11.9643 24.1081 11.9643 23.5455V23.45C11.9561 23.099 11.8424 22.7585 11.6382 22.4729C11.4339 22.1873 11.1484 21.9697 10.8188 21.8485C10.4989 21.7073 10.1441 21.6652 9.80003 21.7276C9.45597 21.79 9.13849 21.954 8.88853 22.1985L8.82489 22.2622C8.62789 22.4594 8.39395 22.6158 8.13643 22.7226C7.87892 22.8293 7.6029 22.8843 7.32414 22.8843C7.04538 22.8843 6.76935 22.8293 6.51184 22.7226C6.25433 22.6158 6.02038 22.4594 5.82338 22.2622C5.62616 22.0652 5.4697 21.8312 5.36295 21.5737C5.2562 21.3162 5.20126 21.0402 5.20126 20.7614C5.20126 20.4826 5.2562 20.2066 5.36295 19.9491C5.4697 19.6916 5.62616 19.4577 5.82338 19.2606L5.88701 19.197C6.13152 18.947 6.29555 18.6296 6.35793 18.2855C6.42031 17.9415 6.3782 17.5866 6.23701 17.2667C6.10257 16.953 5.87933 16.6855 5.59478 16.497C5.31023 16.3086 4.97679 16.2075 4.6355 16.2061H4.4552C3.89262 16.2061 3.35308 15.9826 2.95527 15.5848C2.55747 15.187 2.33398 14.6475 2.33398 14.0849C2.33398 13.5223 2.55747 12.9828 2.95527 12.585C3.35308 12.1872 3.89262 11.9637 4.4552 11.9637H4.55065C4.90171 11.9555 5.24217 11.8418 5.52779 11.6376C5.8134 11.4333 6.03096 11.1478 6.15217 10.8182C6.29335 10.4983 6.33546 10.1435 6.27308 9.79942C6.2107 9.45536 6.04668 9.13788 5.80217 8.88792L5.73853 8.82428C5.54131 8.62728 5.38485 8.39333 5.2781 8.13582C5.17135 7.87831 5.11641 7.60229 5.11641 7.32353C5.11641 7.04477 5.17135 6.76874 5.2781 6.51123C5.38485 6.25372 5.54131 6.01977 5.73853 5.82277C5.93553 5.62555 6.16948 5.46909 6.42699 5.36234C6.6845 5.25559 6.96053 5.20065 7.23929 5.20065C7.51805 5.20065 7.79407 5.25559 8.05159 5.36234C8.3091 5.46909 8.54304 5.62555 8.74005 5.82277L8.80368 5.8864C9.05364 6.13091 9.37112 6.29493 9.71518 6.35732C10.0592 6.4197 10.4141 6.37759 10.734 6.2364H10.8188C11.1325 6.10196 11.4001 5.87872 11.5885 5.59417C11.777 5.30962 11.8781 4.97618 11.8794 4.63489V4.45459C11.8794 3.89201 12.1029 3.35247 12.5007 2.95466C12.8985 2.55686 13.4381 2.33337 14.0007 2.33337C14.5632 2.33337 15.1028 2.55686 15.5006 2.95466C15.8984 3.35247 16.1219 3.89201 16.1219 4.45459V4.55004C16.1232 4.89133 16.2244 5.22477 16.4128 5.50932C16.6012 5.79387 16.8688 6.01711 17.1825 6.15156C17.5024 6.29274 17.8572 6.33485 18.2013 6.27247C18.5453 6.21009 18.8628 6.04606 19.1128 5.80156L19.1764 5.73792C19.3734 5.5407 19.6074 5.38424 19.8649 5.27749C20.1224 5.17074 20.3984 5.1158 20.6772 5.1158C20.9559 5.1158 21.232 5.17074 21.4895 5.27749C21.747 5.38424 21.9809 5.5407 22.1779 5.73792C22.3751 5.93492 22.5316 6.16887 22.6384 6.42638C22.7451 6.68389 22.8 6.95992 22.8 7.23868C22.8 7.51744 22.7451 7.79346 22.6384 8.05098C22.5316 8.30849 22.3751 8.54243 22.1779 8.73944L22.1143 8.80307C21.8698 9.05303 21.7058 9.37051 21.6434 9.71457C21.581 10.0586 21.6231 10.4135 21.7643 10.7334V10.8182C21.8987 11.1319 22.122 11.3995 22.4065 11.5879C22.6911 11.7763 23.0245 11.8775 23.3658 11.8788H23.5461C24.1087 11.8788 24.6482 12.1023 25.046 12.5001C25.4438 12.8979 25.6673 13.4375 25.6673 14C25.6673 14.5626 25.4438 15.1022 25.046 15.5C24.6482 15.8978 24.1087 16.1213 23.5461 16.1213H23.4507C23.1094 16.1226 22.7759 16.2237 22.4914 16.4122C22.2068 16.6006 21.9836 16.8682 21.8491 17.1819Z"
      stroke-opacity="0.3"
      stroke-width="2"
      stroke-linecap="round"
      stroke-linejoin="round"></path>
  </symbol>
  <symbol
    fill="none"
    xmlns="http://www.w3.org/2000/svg"
    viewBox="0 0 16 16"
    id="watch">
    <path
      d="M8.00016 12.6666C10.5775 12.6666 12.6668 10.5773 12.6668 7.99998C12.6668 5.42265 10.5775 3.33331 8.00016 3.33331C5.42283 3.33331 3.3335 5.42265 3.3335 7.99998C3.3335 10.5773 5.42283 12.6666 8.00016 12.6666Z"
      stroke-linecap="round"
      stroke-linejoin="round"></path>
    <path
      d="M8 6V8L9 9"
      stroke-linecap="round"
      stroke-linejoin="round"></path>
    <path
      d="M11.0068 11.5666L10.7735 14.12C10.7434 14.4524 10.5898 14.7615 10.3429 14.9861C10.0961 15.2108 9.77393 15.3347 9.44015 15.3333H6.55348C6.2197 15.3347 5.89755 15.2108 5.65069 14.9861C5.40382 14.7615 5.25019 14.4524 5.22015 14.12L4.98682 11.5666M4.99348 4.4333L5.22682 1.87997C5.25675 1.54869 5.40944 1.24056 5.65489 1.01607C5.90035 0.791584 6.22085 0.66695 6.55348 0.666637H9.45348C9.78726 0.665283 10.1094 0.789169 10.3563 1.01382C10.6031 1.23847 10.7568 1.54754 10.7868 1.87997L11.0202 4.4333"
      stroke-linecap="round"
      stroke-linejoin="round"></path>
  </symbol>
  <symbol
    fill="none"
    xmlns="http://www.w3.org/2000/svg"
    viewBox="0 0 26 26"
    id="x">
    <path
      d="M19.5 6.5L6.5 19.5"
      stroke-width="2"
      stroke-linecap="round"
      stroke-linejoin="round"></path>
    <path
      d="M6.5 6.5L19.5 19.5"
      stroke-width="2"
      stroke-linecap="round"
      stroke-linejoin="round"></path>
  </symbol>
  <symbol
    viewBox="0 0 21 21"
    id="user"
    xmlns="http://www.w3.org/2000/svg">
    <path
      d="M10.5 3.5a3.5 3.5 0 1 1 0 7 3.5 3.5 0 0 1 0-7Zm0 14s7 0 7-1.75c0-2.1-3.412-4.375-7-4.375s-7 2.275-7 4.375c0 1.75 7 1.75 7 1.75Z"
      fill-opacity=".1" />
  </symbol>
  <symbol
    fill="none"
    viewBox="0 0 24 24"
    id="menu"
    xmlns="http://www.w3.org/2000/svg">
    <path
      d="M3 12h12M3 6h18M3 18h18"
      stroke-width="2"
      stroke-linecap="round"
      stroke-linejoin="round" />
  </symbol>
</svg>
