<svg width="0" height="0" class="hidden">
  <symbol fill="none" xmlns="http://www.w3.org/2000/svg" viewBox="0 0 20 20" id="apple">
    <path d="M12.1582 2.97399C12.2222 2.9546 12.2817 2.92257 12.3331 2.8798C12.3844 2.83703 12.4267 2.7844 12.4574 2.725C12.4881 2.6656 12.5066 2.60065 12.5117 2.534C12.5169 2.46734 12.5086 2.40032 12.4874 2.33692C12.4662 2.27351 12.4325 2.215 12.3883 2.16485C12.3441 2.1147 12.2903 2.07392 12.23 2.04493C12.1698 2.01594 12.1043 1.99933 12.0375 1.99608C11.9708 1.99282 11.904 2.00299 11.8412 2.02599C10.9032 2.33799 10.3192 3.10799 9.97524 3.93299C9.92905 4.04451 9.88669 4.15757 9.84824 4.27199C9.66091 3.91713 9.42122 3.59249 9.13724 3.30899C8.75287 2.92379 8.29377 2.62129 7.78818 2.42009C7.28258 2.21888 6.74117 2.12322 6.19724 2.13899C5.61724 2.15499 5.15424 2.61899 5.13824 3.19799C5.12247 3.74192 5.21813 4.28333 5.41934 4.78893C5.62054 5.29452 5.92304 5.75362 6.30824 6.13799L6.33924 6.16799C5.49923 6.34995 4.74012 6.7975 4.17425 7.44442C3.60838 8.09133 3.26581 8.90324 3.19724 9.75999L3.19124 9.83399C3.05922 11.4812 3.4102 13.1311 4.20124 14.582L4.56124 15.24C4.57124 15.257 4.58124 15.274 4.59324 15.29L5.59324 16.692C5.81988 17.0094 6.11296 17.2736 6.45207 17.4663C6.79119 17.6589 7.16821 17.7754 7.5569 17.8076C7.94559 17.8397 8.33662 17.7868 8.7028 17.6525C9.06897 17.5183 9.40149 17.3058 9.67724 17.03C9.71958 16.9876 9.76986 16.954 9.82519 16.9311C9.88053 16.9082 9.93984 16.8964 9.99974 16.8964C10.0596 16.8964 10.1189 16.9082 10.1743 16.9311C10.2296 16.954 10.2799 16.9876 10.3222 17.03C10.598 17.3058 10.9305 17.5183 11.2967 17.6525C11.6629 17.7868 12.0539 17.8397 12.4426 17.8076C12.8313 17.7754 13.2083 17.6589 13.5474 17.4663C13.8865 17.2736 14.1796 17.0094 14.4062 16.692L15.4062 15.291C15.4179 15.2746 15.4286 15.2576 15.4382 15.24L15.7972 14.582C16.5883 13.1311 16.9393 11.4812 16.8072 9.83399L16.8022 9.75999C16.758 9.20777 16.5995 8.67077 16.3368 8.18301C16.0742 7.69525 15.7131 7.26737 15.2764 6.92648C14.8397 6.58559 14.3369 6.33913 13.8 6.20271C13.2631 6.06629 12.7037 6.04289 12.1572 6.13399L10.5002 6.40999C10.5102 5.72899 10.6302 4.96299 10.8992 4.31699C11.1792 3.64199 11.5952 3.16199 12.1572 2.97399H12.1582ZM6.90824 8.97399C6.75471 9.02253 6.61232 9.10098 6.48926 9.20481C6.3662 9.30865 6.26491 9.43582 6.19124 9.57899C6.00624 9.92699 5.87924 10.501 5.99624 11.438C6.00936 11.5679 5.97115 11.6978 5.88979 11.7999C5.80842 11.902 5.69034 11.9682 5.56079 11.9844C5.43124 12.0006 5.30049 11.9655 5.19649 11.8865C5.09249 11.8076 5.02349 11.6911 5.00424 11.562C4.87124 10.498 4.99424 9.69699 5.30924 9.10799C5.62924 8.50799 6.11624 8.18399 6.59224 8.02499C6.65455 8.00424 6.72034 7.99597 6.78585 8.00064C6.85136 8.00532 6.9153 8.02285 6.97404 8.05224C7.03277 8.08163 7.08514 8.1223 7.12815 8.17193C7.17117 8.22156 7.20399 8.27918 7.22474 8.34149C7.24549 8.4038 7.25376 8.46959 7.24908 8.5351C7.24441 8.60061 7.22687 8.66455 7.19748 8.72329C7.16809 8.78202 7.12742 8.83439 7.07779 8.8774C7.02816 8.92042 6.97055 8.95324 6.90824 8.97399Z" fill="#EF8964"></path>
  </symbol>
  <symbol fill="none" xmlns="http://www.w3.org/2000/svg" viewBox="0 0 20 20" id="arrow-back">
    <path d="M8.66667 14.1666L4.5 9.99998M4.5 9.99998L8.66667 5.83331M4.5 9.99998H14.5" stroke="#E6533C" stroke-width="1.5" stroke-linecap="round" stroke-linejoin="round"></path>
  </symbol>
  <symbol fill="none" xmlns="http://www.w3.org/2000/svg" viewBox="0 0 20 20" id="arrow-next">
    <path d="M11.3333 14.1666L15.5 9.99998M15.5 9.99998L11.3333 5.83331M15.5 9.99998H5.5" stroke="#E6533C" stroke-width="1.5" stroke-linecap="round" stroke-linejoin="round"></path>
  </symbol>
  <symbol fill="none" xmlns="http://www.w3.org/2000/svg" viewBox="0 0 20 20" id="bubble">
    <path d="M12.9938 10.2163C15.3548 10.2163 17.2688 8.30228 17.2688 5.94126C17.2688 3.58025 15.3548 1.66626 12.9938 1.66626C10.6327 1.66626 8.71875 3.58025 8.71875 5.94126C8.71875 8.30228 10.6327 10.2163 12.9938 10.2163Z" fill="#EF8964"></path>
    <path d="M5.29712 16.1994C6.71465 16.1994 7.8638 15.0502 7.8638 13.6327C7.8638 12.2152 6.71465 11.066 5.29712 11.066C3.87959 11.066 2.73047 12.2152 2.73047 13.6327C2.73047 15.0502 3.87959 16.1994 5.29712 16.1994Z" fill="#EF8964"></path>
    <path d="M13.8443 18.3328C15.0225 18.3328 15.9776 17.3777 15.9776 16.1995C15.9776 15.0213 15.0225 14.0662 13.8443 14.0662C12.6661 14.0662 11.7109 15.0213 11.7109 16.1995C11.7109 17.3777 12.6661 18.3328 13.8443 18.3328Z" fill="#EF8964"></path>
  </symbol>
  <symbol fill="none" xmlns="http://www.w3.org/2000/svg" viewBox="0 0 18 18" id="calendar">
    <path d="M14.25 3H3.75C2.92157 3 2.25 3.67157 2.25 4.5V15C2.25 15.8284 2.92157 16.5 3.75 16.5H14.25C15.0784 16.5 15.75 15.8284 15.75 15V4.5C15.75 3.67157 15.0784 3 14.25 3Z" stroke="#EFEDE8" stroke-width="1.5" stroke-linecap="round" stroke-linejoin="round"></path>
    <path d="M12 1.5V4.5" stroke="#EFEDE8" stroke-width="1.5" stroke-linecap="round" stroke-linejoin="round"></path>
    <path d="M6 1.5V4.5" stroke="#EFEDE8" stroke-width="1.5" stroke-linecap="round" stroke-linejoin="round"></path>
    <path d="M2.25 7.5H15.75" stroke="#EFEDE8" stroke-width="1.5" stroke-linecap="round" stroke-linejoin="round"></path>
  </symbol>
  <symbol fill="none" xmlns="http://www.w3.org/2000/svg" viewBox="0 0 24 24" id="check-mark">
    <path d="M8.42353 0.427845L11.4416 1.30053C11.7806 1.39857 12.1404 1.39931 12.4798 1.30269L15.6112 0.411303C16.4564 0.170715 17.3556 0.546915 17.7776 1.31768L19.4127 4.30383C19.5809 4.61093 19.8314 4.86505 20.136 5.03762L22.6787 6.47792C23.4497 6.91468 23.8117 7.8301 23.548 8.6761L22.6688 11.4954C22.5556 11.8584 22.555 12.2472 22.6671 12.6106L23.56 15.5054C23.8177 16.3409 23.4661 17.244 22.7113 17.6852L19.817 19.3772C19.5138 19.5544 19.2663 19.8129 19.1023 20.1235L17.7545 22.6768C17.3456 23.4515 16.4564 23.8417 15.6095 23.6181L12.4446 22.7828C12.1273 22.699 11.7937 22.6997 11.4767 22.7846L8.43415 23.6004C7.5676 23.8328 6.6575 23.4213 6.25958 22.6172L4.91893 19.908C4.74213 19.5508 4.45647 19.2588 4.10311 19.0743L1.34775 17.6356C0.561474 17.225 0.168507 16.3213 0.404481 15.4662L1.21086 12.5444C1.29971 12.2224 1.3013 11.8826 1.21547 11.5599L0.376636 8.40538C0.155154 7.57248 0.52762 6.69555 1.2808 6.27662L4.15375 4.67867C4.47542 4.49975 4.73758 4.23045 4.90779 3.90409L6.23165 1.36568C6.64597 0.571256 7.56282 0.178965 8.42353 0.427845Z" fill="#E6533C"></path>
    <path d="M12.25 7V17" stroke="#EFEDE8" stroke-width="1.5" stroke-linecap="round" stroke-linejoin="round"></path>
    <path d="M7 12H17" stroke="#EFEDE8" stroke-width="1.5" stroke-linecap="round" stroke-linejoin="round"></path>
  </symbol>
  <symbol fill="none" xmlns="http://www.w3.org/2000/svg" viewBox="0 0 16 16" id="chevron-left">
    <path fill-rule="evenodd" clip-rule="evenodd" d="M10.5428 0.542847L11.957 1.95706L6.16414 7.74995L11.957 13.5428L10.5428 14.9571L3.33571 7.74995L10.5428 0.542847Z" fill="#EFEDE8" fill-opacity="0.2"></path>
  </symbol>
  <symbol fill="none" xmlns="http://www.w3.org/2000/svg" viewBox="0 0 16 16" id="chevron-right">
    <path fill-rule="evenodd" clip-rule="evenodd" d="M5.45718 14.9572L4.04297 13.5429L9.83586 7.75005L4.04297 1.95715L5.45718 0.542938L12.6643 7.75005L5.45718 14.9572Z" fill="#EFEDE8"></path>
  </symbol>
  <symbol fill="none" xmlns="http://www.w3.org/2000/svg" viewBox="0 0 20 20" id="cutlery">
    <path d="M14.9974 2.5C15.2015 2.50003 15.3985 2.57496 15.551 2.7106C15.7036 2.84623 15.801 3.03312 15.8249 3.23583L15.8307 3.33333V16.6667C15.8305 16.8791 15.7492 17.0834 15.6034 17.2378C15.4575 17.3923 15.2583 17.4852 15.0462 17.4976C14.8342 17.5101 14.6254 17.4411 14.4625 17.3048C14.2997 17.1685 14.195 16.9751 14.1699 16.7642L14.1641 16.6667V12.5H13.3307C13.1266 12.5 12.9296 12.425 12.7771 12.2894C12.6246 12.1538 12.5271 11.9669 12.5032 11.7642L12.4974 11.6667V6.66667C12.4974 4.825 13.7474 2.5 14.9974 2.5ZM9.9974 2.5C10.2015 2.50003 10.3985 2.57496 10.551 2.7106C10.7036 2.84623 10.801 3.03312 10.8249 3.23583L10.8307 3.33333V7.5C10.8306 8.23906 10.585 8.95715 10.1325 9.54148C9.68003 10.1258 9.04625 10.5433 8.33073 10.7283V16.6667C8.33049 16.8791 8.24916 17.0834 8.10336 17.2378C7.95755 17.3923 7.75827 17.4852 7.54623 17.4976C7.3342 17.5101 7.12541 17.4411 6.96254 17.3048C6.79966 17.1685 6.69498 16.9751 6.6699 16.7642L6.66406 16.6667V10.7283C5.97694 10.5507 5.3644 10.1585 4.91553 9.60876C4.46666 9.05903 4.20487 8.38043 4.16823 7.67167L4.16406 7.5V3.33333C4.1643 3.12093 4.24563 2.91664 4.39144 2.76219C4.53724 2.60775 4.73652 2.5148 4.94856 2.50236C5.16059 2.48991 5.36938 2.5589 5.53226 2.69522C5.69513 2.83155 5.79981 3.02492 5.8249 3.23583L5.83073 3.33333V7.5C5.83074 7.79255 5.90775 8.07995 6.05403 8.33331C6.20031 8.58667 6.4107 8.79706 6.66406 8.94333V3.33333C6.6643 3.12093 6.74563 2.91664 6.89144 2.76219C7.03724 2.60775 7.23652 2.5148 7.44856 2.50236C7.66059 2.48991 7.86938 2.5589 8.03226 2.69522C8.19513 2.83155 8.29981 3.02492 8.3249 3.23583L8.33073 3.33333L8.33156 8.94333C8.56412 8.80891 8.76073 8.62027 8.90467 8.39349C9.0486 8.1667 9.13559 7.90848 9.15823 7.64083L9.16406 7.5V3.33333C9.16406 3.11232 9.25186 2.90036 9.40814 2.74408C9.56442 2.5878 9.77638 2.5 9.9974 2.5Z" fill="#EF8964"></path>
  </symbol>
  <symbol fill="none" xmlns="http://www.w3.org/2000/svg" viewBox="0 0 20 20" id="dumbbell">
    <path d="M3.25 5H1.75C1.33438 5 1 5.33437 1 5.75V9H0.25C0.1125 9 0 9.1125 0 9.25V10.75C0 10.8875 0.1125 11 0.25 11H1V14.25C1 14.6656 1.33438 15 1.75 15H3.25C3.66563 15 4 14.6656 4 14.25V5.75C4 5.33437 3.66563 5 3.25 5ZM19.75 9H19V5.75C19 5.33437 18.6656 5 18.25 5H16.75C16.3344 5 16 5.33437 16 5.75V14.25C16 14.6656 16.3344 15 16.75 15H18.25C18.6656 15 19 14.6656 19 14.25V11H19.75C19.8875 11 20 10.8875 20 10.75V9.25C20 9.1125 19.8875 9 19.75 9ZM14.25 3H12.75C12.3344 3 12 3.33437 12 3.75V9H8V3.75C8 3.33437 7.66563 3 7.25 3H5.75C5.33437 3 5 3.33437 5 3.75V16.25C5 16.6656 5.33437 17 5.75 17H7.25C7.66563 17 8 16.6656 8 16.25V11H12V16.25C12 16.6656 12.3344 17 12.75 17H14.25C14.6656 17 15 16.6656 15 16.25V3.75C15 3.33437 14.6656 3 14.25 3Z" fill="#EF8964"></path>
  </symbol>
  <symbol fill="none" xmlns="http://www.w3.org/2000/svg" viewBox="0 0 24 24" id="exclamation-mark">
    <path d="M12 19V19.01M12 15V5" stroke="#EFEDE8" stroke-width="2" stroke-linecap="round" stroke-linejoin="round"></path>
  </symbol>
  <symbol fill="none" xmlns="http://www.w3.org/2000/svg" viewBox="0 0 20 20" id="fire">
    <path d="M9.99898 13.9321C9.40789 14.382 8.1875 15.4946 8.1875 17.0105C8.1875 18.0112 8.99969 18.8254 9.99805 18.8254C10.9964 18.8254 11.8086 18.0112 11.8086 17.0105C11.8086 15.5749 10.5875 14.41 9.99898 13.9321Z" fill="#EF8964"></path>
    <path d="M14.2437 3.48096C14.0241 3.23264 13.6452 3.2176 13.4061 3.4408L10.6488 6.0142V0.624943C10.6488 0.173811 10.1049 -0.163259 9.69754 0.0831466C9.62043 0.129787 7.78809 1.24869 5.93664 3.28061C3.68551 5.75123 2.15234 8.75939 2.15234 12.133C2.15234 16.4709 5.67293 20 10.0003 20C8.35574 20 7.01785 18.6588 7.01785 17.0103C7.01785 14.3466 9.6041 12.7693 9.71418 12.7034C9.90715 12.5881 10.1488 12.5935 10.3364 12.7171C10.4445 12.7883 12.9827 14.4908 12.9827 17.0103C12.9827 18.6588 11.6448 20 10.0003 20C14.3276 20 17.8482 16.4709 17.8482 12.133C17.8482 8.85744 16.4028 5.92154 14.2437 3.48096Z" fill="#EF8964"></path>
  </symbol>
  <symbol fill="none" xmlns="http://www.w3.org/2000/svg" viewBox="0 0 100 37" id="line">
    <path d="M70.2042 1C46.8841 1.33789 -4.04016 5.40761 1.40442 26.1234C6.29755 40.7491 76.0223 37.6072 93.2256 26.6017C110.429 15.5962 86.8026 4.14443 53.8704 8.19909" stroke="#EF8964" stroke-width="2" stroke-linecap="round" stroke-linejoin="round"></path>
  </symbol>
  <symbol fill="none" xmlns="http://www.w3.org/2000/svg" viewBox="0 0 36 13" id="logo">
    <path d="M35.0714 5.57143C35.5843 5.57143 36 5.98716 36 6.5C36 7.01284 35.5843 7.42857 35.0714 7.42857H34.4286C33.8763 7.42857 33.4286 7.87629 33.4286 8.42857V10.1429C33.4286 10.6951 32.9809 11.1429 32.4286 11.1429H31.7857C31.2729 11.1429 30.8571 11.5586 30.8571 12.0714C30.8571 12.5843 30.4414 13 29.9286 13H28C27.4477 13 27 12.5523 27 12V8.42857C27 7.87629 26.5523 7.42857 26 7.42857H10C9.44772 7.42857 9 7.87629 9 8.42857V12C9 12.5523 8.55228 13 8 13H6.07143C5.55859 13 5.14286 12.5843 5.14286 12.0714C5.14286 11.5586 4.72712 11.1429 4.21429 11.1429H3.57143C3.01914 11.1429 2.57143 10.6951 2.57143 10.1429V8.42857C2.57143 7.87629 2.12371 7.42857 1.57143 7.42857H0.928572C0.415736 7.42857 0 7.01284 0 6.5C0 5.98716 0.415736 5.57143 0.928572 5.57143H1.57143C2.12371 5.57143 2.57143 5.12371 2.57143 4.57143V2.85714C2.57143 2.30486 3.01914 1.85714 3.57143 1.85714H4.21429C4.72712 1.85714 5.14286 1.44141 5.14286 0.928571C5.14286 0.415736 5.55859 0 6.07143 0H8C8.55228 0 9 0.447715 9 1V4.57143C9 5.12371 9.44772 5.57143 10 5.57143H26C26.5523 5.57143 27 5.12371 27 4.57143V1C27 0.447716 27.4477 0 28 0H29.9286C30.4414 0 30.8571 0.415736 30.8571 0.928571C30.8571 1.44141 31.2729 1.85714 31.7857 1.85714H32.4286C32.9809 1.85714 33.4286 2.30486 33.4286 2.85714V4.57143C33.4286 5.12371 33.8763 5.57143 34.4286 5.57143H35.0714Z" fill="#E6533C"></path>
  </symbol>
  <symbol fill="none" xmlns="http://www.w3.org/2000/svg" viewBox="0 0 20 20" id="logout">
    <path d="M7.5 2.5H6.5C5.09987 2.5 4.3998 2.5 3.86502 2.77248C3.39462 3.01217 3.01217 3.39462 2.77248 3.86502C2.5 4.3998 2.5 5.09987 2.5 6.5V13.5C2.5 14.9001 2.5 15.6002 2.77248 16.135C3.01217 16.6054 3.39462 16.9878 3.86502 17.2275C4.3998 17.5 5.09987 17.5 6.5 17.5H7.5" stroke="#E6533C" stroke-width="1.5" stroke-linecap="round" stroke-linejoin="round"></path>
    <path d="M13.3333 14.1666L17.5 9.99998M17.5 9.99998L13.3333 5.83331M17.5 9.99998H7.5" stroke="#E6533C" stroke-width="1.5" stroke-linecap="round" stroke-linejoin="round"></path>
  </symbol>
  <symbol fill="none" xmlns="http://www.w3.org/2000/svg" viewBox="0 0 24 24" id="menu">
    <path d="M3 12H15M3 6H21M3 18H21" stroke="#E6533C" stroke-width="2" stroke-linecap="round" stroke-linejoin="round"></path>
  </symbol>
  <symbol fill="none" xmlns="http://www.w3.org/2000/svg" viewBox="0 0 32 32" id="pause">
    <path d="M4 10.4C4 8.15979 4 7.03969 4.43597 6.18404C4.81947 5.43139 5.43139 4.81947 6.18404 4.43597C7.03969 4 8.15979 4 10.4 4H21.6C23.8402 4 24.9603 4 25.816 4.43597C26.5686 4.81947 27.1805 5.43139 27.564 6.18404C28 7.03969 28 8.15979 28 10.4V21.6C28 23.8402 28 24.9603 27.564 25.816C27.1805 26.5686 26.5686 27.1805 25.816 27.564C24.9603 28 23.8402 28 21.6 28H10.4C8.15979 28 7.03969 28 6.18404 27.564C5.43139 27.1805 4.81947 26.5686 4.43597 25.816C4 24.9603 4 23.8402 4 21.6V10.4Z" fill="#E6533C" stroke="#E6533C" stroke-linecap="round" stroke-linejoin="round"></path>
    <path d="M12.6663 20V12M19.333 20V12" stroke="#EFEDE8" stroke-width="1.3" stroke-linecap="round" stroke-linejoin="round"></path>
  </symbol>
  <symbol fill="none" xmlns="http://www.w3.org/2000/svg" viewBox="0 0 32 32" id="play">
    <path d="M4 10.4C4 8.15979 4 7.03969 4.43597 6.18404C4.81947 5.43139 5.43139 4.81947 6.18404 4.43597C7.03969 4 8.15979 4 10.4 4H21.6C23.8402 4 24.9603 4 25.816 4.43597C26.5686 4.81947 27.1805 5.43139 27.564 6.18404C28 7.03969 28 8.15979 28 10.4V21.6C28 23.8402 28 24.9603 27.564 25.816C27.1805 26.5686 26.5686 27.1805 25.816 27.564C24.9603 28 23.8402 28 21.6 28H10.4C8.15979 28 7.03969 28 6.18404 27.564C5.43139 27.1805 4.81947 26.5686 4.43597 25.816C4 24.9603 4 23.8402 4 21.6V10.4Z" fill="#E6533C" stroke="#E6533C" stroke-linecap="round" stroke-linejoin="round"></path>
    <path d="M11.9167 10.75L20.0833 16L11.9167 21.25V10.75Z" fill="#EFEDE8" stroke="#EFEDE8" stroke-width="1.3" stroke-linecap="round" stroke-linejoin="round"></path>
  </symbol>
  <symbol fill="none" xmlns="http://www.w3.org/2000/svg" viewBox="0 0 9 12" id="polygon">
    <path d="M9 6L0 11.1962V0.803848L9 6Z" fill="#EFEDE8"></path>
  </symbol>
  <symbol fill="none" xmlns="http://www.w3.org/2000/svg" viewBox="0 0 12 12" id="running-person">
    <g clip-path="url(#clip0_130_10248)">
      <path d="M11.1166 3.54408C10.9593 3.35628 10.6793 3.33159 10.4915 3.48819L9.26074 4.52204L8.69476 3.11975C8.67461 3.06712 8.64407 3.02293 8.60898 2.98394C8.49332 2.72662 8.29253 2.50568 8.01571 2.37767C7.89549 2.32309 7.77138 2.29385 7.64727 2.27955C7.61997 2.26525 7.59528 2.24641 7.56409 2.23666L5.39828 1.63299C5.27677 1.59985 5.1546 1.6213 5.05453 1.67978C4.93562 1.72007 4.8336 1.80649 4.78486 1.9319L3.96936 4.02883C3.88098 4.25692 3.99405 4.51424 4.22278 4.60391C4.45021 4.69229 4.70819 4.57857 4.79721 4.34984L5.48601 2.57911L6.47241 2.85333C6.44837 2.89232 6.42238 2.92871 6.40288 2.9703L5.13836 5.71118C5.12016 5.75147 5.11042 5.79241 5.09742 5.834L3.56063 8.41049L0.988687 9.27083C0.697573 9.48852 0.635841 9.89855 0.850927 10.1897C1.06731 10.4814 1.47864 10.5432 1.76911 10.3281L4.40083 9.42159C4.4814 9.3631 4.53989 9.28643 4.58407 9.2039C4.61721 9.16881 4.6549 9.14087 4.68024 9.09733L5.59647 7.56119L7.22294 8.94723L5.48276 10.9083C5.24298 11.1787 5.26702 11.5952 5.53864 11.8343C5.80961 12.0754 6.22484 12.0501 6.46592 11.7784L8.63757 9.33191C8.70515 9.25654 8.74544 9.16946 8.77273 9.07849C8.78898 9.0291 8.78898 8.97777 8.79288 8.92643C8.79288 8.90044 8.80262 8.87705 8.80068 8.85301C8.79483 8.67366 8.72205 8.49951 8.57519 8.3754L7.07868 7.09917C7.18655 6.99651 7.27818 6.87434 7.34446 6.73073L8.31397 4.6312L8.62458 5.45841C8.63757 5.53184 8.66227 5.60397 8.71425 5.6644C8.76104 5.72028 8.82082 5.75732 8.8845 5.78331C8.891 5.78656 8.8988 5.78721 8.90659 5.78916C8.94688 5.80346 8.98782 5.8171 9.03006 5.81905C9.08009 5.8236 9.13078 5.8171 9.18211 5.80281C9.18341 5.80216 9.18406 5.80216 9.18406 5.80216C9.19771 5.79891 9.21135 5.80151 9.225 5.79566C9.29713 5.76837 9.35236 5.72223 9.3998 5.6683L11.166 4.16919C11.3538 4.01129 11.2745 3.73187 11.1166 3.54408Z" fill="#EFEDE8"></path>
      <path d="M8.88241 2.47577C9.56608 2.47577 10.1203 1.92155 10.1203 1.23788C10.1203 0.554219 9.56608 0 8.88241 0C8.19875 0 7.64453 0.554219 7.64453 1.23788C7.64453 1.92155 8.19875 2.47577 8.88241 2.47577Z" fill="#EFEDE8"></path>
    </g>
    <defs>
      <clipPath id="clip0_130_10248">
        <rect width="12" height="12" fill="white"></rect>
      </clipPath>
    </defs>
  </symbol>
  <symbol fill="none" xmlns="http://www.w3.org/2000/svg" viewBox="0 0 24 24" id="settings">
    <path d="M12 15C13.6569 15 15 13.6569 15 12C15 10.3431 13.6569 9 12 9C10.3431 9 9 10.3431 9 12C9 13.6569 10.3431 15 12 15Z" stroke="#EFEDE8" stroke-opacity="0.3" stroke-width="1.5" stroke-linecap="round" stroke-linejoin="round"></path>
    <path d="M18.7273 14.7273C18.6063 15.0015 18.5702 15.3056 18.6236 15.6005C18.6771 15.8954 18.8177 16.1676 19.0273 16.3818L19.0818 16.4364C19.2509 16.6052 19.385 16.8058 19.4765 17.0265C19.568 17.2472 19.6151 17.4838 19.6151 17.7227C19.6151 17.9617 19.568 18.1983 19.4765 18.419C19.385 18.6397 19.2509 18.8402 19.0818 19.0091C18.913 19.1781 18.7124 19.3122 18.4917 19.4037C18.271 19.4952 18.0344 19.5423 17.7955 19.5423C17.5565 19.5423 17.3199 19.4952 17.0992 19.4037C16.8785 19.3122 16.678 19.1781 16.5091 19.0091L16.4545 18.9545C16.2403 18.745 15.9682 18.6044 15.6733 18.5509C15.3784 18.4974 15.0742 18.5335 14.8 18.6545C14.5311 18.7698 14.3018 18.9611 14.1403 19.205C13.9788 19.4489 13.8921 19.7347 13.8909 20.0273V20.1818C13.8909 20.664 13.6994 21.1265 13.3584 21.4675C13.0174 21.8084 12.5549 22 12.0727 22C11.5905 22 11.1281 21.8084 10.7871 21.4675C10.4461 21.1265 10.2545 20.664 10.2545 20.1818V20.1C10.2475 19.7991 10.1501 19.5073 9.97501 19.2625C9.79991 19.0176 9.55521 18.8312 9.27273 18.7273C8.99853 18.6063 8.69437 18.5702 8.39947 18.6236C8.10456 18.6771 7.83244 18.8177 7.61818 19.0273L7.56364 19.0818C7.39478 19.2509 7.19425 19.385 6.97353 19.4765C6.7528 19.568 6.51621 19.6151 6.27727 19.6151C6.03834 19.6151 5.80174 19.568 5.58102 19.4765C5.36029 19.385 5.15977 19.2509 4.99091 19.0818C4.82186 18.913 4.68775 18.7124 4.59626 18.4917C4.50476 18.271 4.45766 18.0344 4.45766 17.7955C4.45766 17.5565 4.50476 17.3199 4.59626 17.0992C4.68775 16.8785 4.82186 16.678 4.99091 16.5091L5.04545 16.4545C5.25503 16.2403 5.39562 15.9682 5.4491 15.6733C5.50257 15.3784 5.46647 15.0742 5.34545 14.8C5.23022 14.5311 5.03887 14.3018 4.79497 14.1403C4.55107 13.9788 4.26526 13.8921 3.97273 13.8909H3.81818C3.33597 13.8909 2.87351 13.6994 2.53253 13.3584C2.19156 13.0174 2 12.5549 2 12.0727C2 11.5905 2.19156 11.1281 2.53253 10.7871C2.87351 10.4461 3.33597 10.2545 3.81818 10.2545H3.9C4.2009 10.2475 4.49273 10.1501 4.73755 9.97501C4.98236 9.79991 5.16883 9.55521 5.27273 9.27273C5.39374 8.99853 5.42984 8.69437 5.37637 8.39947C5.3229 8.10456 5.18231 7.83244 4.97273 7.61818L4.91818 7.56364C4.74913 7.39478 4.61503 7.19425 4.52353 6.97353C4.43203 6.7528 4.38493 6.51621 4.38493 6.27727C4.38493 6.03834 4.43203 5.80174 4.52353 5.58102C4.61503 5.36029 4.74913 5.15977 4.91818 4.99091C5.08704 4.82186 5.28757 4.68775 5.50829 4.59626C5.72901 4.50476 5.96561 4.45766 6.20455 4.45766C6.44348 4.45766 6.68008 4.50476 6.9008 4.59626C7.12153 4.68775 7.32205 4.82186 7.49091 4.99091L7.54546 5.04545C7.75971 5.25503 8.03183 5.39562 8.32674 5.4491C8.62164 5.50257 8.9258 5.46647 9.2 5.34545H9.27273C9.54161 5.23022 9.77093 5.03887 9.93245 4.79497C10.094 4.55107 10.1807 4.26526 10.1818 3.97273V3.81818C10.1818 3.33597 10.3734 2.87351 10.7144 2.53253C11.0553 2.19156 11.5178 2 12 2C12.4822 2 12.9447 2.19156 13.2856 2.53253C13.6266 2.87351 13.8182 3.33597 13.8182 3.81818V3.9C13.8194 4.19253 13.906 4.47834 14.0676 4.72224C14.2291 4.96614 14.4584 5.15749 14.7273 5.27273C15.0015 5.39374 15.3056 5.42984 15.6005 5.37637C15.8954 5.3229 16.1676 5.18231 16.3818 4.97273L16.4364 4.91818C16.6052 4.74913 16.8058 4.61503 17.0265 4.52353C17.2472 4.43203 17.4838 4.38493 17.7227 4.38493C17.9617 4.38493 18.1983 4.43203 18.419 4.52353C18.6397 4.61503 18.8402 4.74913 19.0091 4.91818C19.1781 5.08704 19.3122 5.28757 19.4037 5.50829C19.4952 5.72901 19.5423 5.96561 19.5423 6.20455C19.5423 6.44348 19.4952 6.68008 19.4037 6.9008C19.3122 7.12153 19.1781 7.32205 19.0091 7.49091L18.9545 7.54546C18.745 7.75971 18.6044 8.03183 18.5509 8.32674C18.4974 8.62164 18.5335 8.9258 18.6545 9.2V9.27273C18.7698 9.54161 18.9611 9.77093 19.205 9.93245C19.4489 10.094 19.7347 10.1807 20.0273 10.1818H20.1818C20.664 10.1818 21.1265 10.3734 21.4675 10.7144C21.8084 11.0553 22 11.5178 22 12C22 12.4822 21.8084 12.9447 21.4675 13.2856C21.1265 13.6266 20.664 13.8182 20.1818 13.8182H20.1C19.8075 13.8194 19.5217 13.906 19.2778 14.0676C19.0339 14.2291 18.8425 14.4584 18.7273 14.7273Z" stroke="#EFEDE8" stroke-opacity="0.3" stroke-width="1.5" stroke-linecap="round" stroke-linejoin="round"></path>
  </symbol>
  <symbol fill="none" xmlns="http://www.w3.org/2000/svg" viewBox="0 0 20 20" id="trash">
    <path d="M7.5 2.5H12.5M8.33333 8.75V12.9167M11.6667 8.75V12.9167" stroke="#EF8964" stroke-width="1.5" stroke-linecap="round" stroke-linejoin="round"></path>
    <path d="M2.5 5H17.5M15.8333 5L15.2489 13.7661C15.1612 15.0813 15.1174 15.7389 14.8333 16.2375C14.5833 16.6765 14.206 17.0294 13.7514 17.2497C13.235 17.5 12.5759 17.5 11.2578 17.5H8.74221C7.42409 17.5 6.76503 17.5 6.24861 17.2497C5.79396 17.0294 5.41674 16.6765 5.16665 16.2375C4.88259 15.7389 4.83875 15.0813 4.75107 13.7661L4.16667 5" stroke="#EF8964" stroke-width="1.5" stroke-linecap="round" stroke-linejoin="round"></path>
  </symbol>
</svg>